<svg xmlns="http://www.w3.org/2000/svg" width="800" height="500" viewBox="0 0 800 500" style="background:#fff">
  <text x="400" y="28" text-anchor="middle" font-size="18" font-weight="500" fill="#333">用户设备分布</text>
  
    <line x1="70" y1="50" x2="70" y2="440" stroke="#ccc" stroke-width="1"/>
    <line x1="70" y1="440" x2="760" y2="440" stroke="#ccc" stroke-width="1"/>
  
  <path d="M 400 260 L 400 110 A 150 150 0 0 1 446.3525491562421 402.658477444273 Z" fill="#5470c6" stroke="#fff" stroke-width="1.5"/><text x="496.2996132080259" y="244.7476396585775" text-anchor="middle" dominant-baseline="central" font-size="13" fill="#fff" font-weight="500">45.0%</text><path d="M 400 260 L 446.3525491562421 402.658477444273 A 150 150 0 0 1 268.55399799342047 187.73694888474273 Z" fill="#91cc75" stroke="#fff" stroke-width="1.5"/><text x="324.8749588293606" y="322.1488390004973" text-anchor="middle" dominant-baseline="central" font-size="13" fill="#fff" font-weight="500">38.0%</text><path d="M 400 260 L 268.55399799342047 187.73694888474273 A 150 150 0 0 1 353.64745084375784 117.34152255572698 Z" fill="#fac858" stroke="#fff" stroke-width="1.5"/><text x="337.8511609995027" y="184.8749588293606" text-anchor="middle" dominant-baseline="central" font-size="13" fill="#fff" font-weight="500">12.0%</text><path d="M 400 260 L 353.64745084375784 117.34152255572698 A 150 150 0 0 1 400 110 Z" fill="#ee6666" stroke="#fff" stroke-width="1.5"/><text x="384.7476396585775" y="163.7003867919741" text-anchor="middle" dominant-baseline="central" font-size="13" fill="#fff" font-weight="500">5.0%</text><rect x="660" y="60" width="12" height="12" fill="#5470c6" rx="2"/><text x="678" y="70" font-size="12" fill="#666">iOS (4500)</text><rect x="660" y="84" width="12" height="12" fill="#91cc75" rx="2"/><text x="678" y="94" font-size="12" fill="#666">Android (3800)</text><rect x="660" y="108" width="12" height="12" fill="#fac858" rx="2"/><text x="678" y="118" font-size="12" fill="#666">Web (1200)</text><rect x="660" y="132" width="12" height="12" fill="#ee6666" rx="2"/><text x="678" y="142" font-size="12" fill="#666">其他 (500)</text>
</svg>