<svg xmlns="http://www.w3.org/2000/svg" width="800" height="500" viewBox="0 0 800 500" style="background:#fff">
  <text x="400" y="28" text-anchor="middle" font-size="18" font-weight="500" fill="#333">身高体重分布</text>
  
    <line x1="70" y1="50" x2="70" y2="440" stroke="#ccc" stroke-width="1"/>
    <line x1="70" y1="440" x2="760" y2="440" stroke="#ccc" stroke-width="1"/>
  
  <line x1="70" y1="440" x2="760" y2="440" stroke="#e0e0e0" stroke-width="0.5"/><text x="60" y="444" text-anchor="end" font-size="12" fill="#999">0</text><text x="70" y="460" text-anchor="middle" font-size="12" fill="#999">0</text><line x1="70" y1="362" x2="760" y2="362" stroke="#e0e0e0" stroke-width="0.5"/><text x="60" y="366" text-anchor="end" font-size="12" fill="#999">20</text><text x="208" y="460" text-anchor="middle" font-size="12" fill="#999">40</text><line x1="70" y1="284" x2="760" y2="284" stroke="#e0e0e0" stroke-width="0.5"/><text x="60" y="288" text-anchor="end" font-size="12" fill="#999">40</text><text x="346" y="460" text-anchor="middle" font-size="12" fill="#999">80</text><line x1="70" y1="206" x2="760" y2="206" stroke="#e0e0e0" stroke-width="0.5"/><text x="60" y="210" text-anchor="end" font-size="12" fill="#999">60</text><text x="484" y="460" text-anchor="middle" font-size="12" fill="#999">120</text><line x1="70" y1="128" x2="760" y2="128" stroke="#e0e0e0" stroke-width="0.5"/><text x="60" y="132" text-anchor="end" font-size="12" fill="#999">80</text><text x="622" y="460" text-anchor="middle" font-size="12" fill="#999">160</text><line x1="70" y1="50" x2="760" y2="50" stroke="#e0e0e0" stroke-width="0.5"/><text x="60" y="54" text-anchor="end" font-size="12" fill="#999">100</text><text x="760" y="460" text-anchor="middle" font-size="12" fill="#999">200</text><text x="415" y="485" text-anchor="middle" font-size="13" fill="#666">X</text><text x="20" y="245" text-anchor="middle" font-size="13" fill="#666" transform="rotate(-90 20 245)">Y</text><circle cx="622" cy="225.49999999999997" r="5" fill="#ee6666" opacity="0.7"/><circle cx="656.5" cy="186.5" r="5" fill="#ee6666" opacity="0.7"/><circle cx="673.75" cy="167" r="5" fill="#ee6666" opacity="0.7"/><circle cx="691" cy="147.5" r="5" fill="#ee6666" opacity="0.7"/><circle cx="639.25" cy="213.8" r="5" fill="#ee6666" opacity="0.7"/><circle cx="663.4" cy="174.79999999999995" r="5" fill="#ee6666" opacity="0.7"/>
</svg>