<svg xmlns="http://www.w3.org/2000/svg" width="800" height="500" viewBox="0 0 800 500" style="background:#fff">
  <text x="400" y="28" text-anchor="middle" font-size="18" font-weight="500" fill="#333">月度销售额</text>
  
    <line x1="70" y1="50" x2="70" y2="440" stroke="#ccc" stroke-width="1"/>
    <line x1="70" y1="440" x2="760" y2="440" stroke="#ccc" stroke-width="1"/>
  
  <line x1="70" y1="440" x2="760" y2="440" stroke="#e0e0e0" stroke-width="0.5"/><text x="60" y="444" text-anchor="end" font-size="12" fill="#999">0</text><line x1="70" y1="362" x2="760" y2="362" stroke="#e0e0e0" stroke-width="0.5"/><text x="60" y="366" text-anchor="end" font-size="12" fill="#999">40</text><line x1="70" y1="284" x2="760" y2="284" stroke="#e0e0e0" stroke-width="0.5"/><text x="60" y="288" text-anchor="end" font-size="12" fill="#999">80</text><line x1="70" y1="206" x2="760" y2="206" stroke="#e0e0e0" stroke-width="0.5"/><text x="60" y="210" text-anchor="end" font-size="12" fill="#999">120</text><line x1="70" y1="128" x2="760" y2="128" stroke="#e0e0e0" stroke-width="0.5"/><text x="60" y="132" text-anchor="end" font-size="12" fill="#999">160</text><line x1="70" y1="50" x2="760" y2="50" stroke="#e0e0e0" stroke-width="0.5"/><text x="60" y="54" text-anchor="end" font-size="12" fill="#999">200</text><rect x="104.5" y="206" width="103.5" height="234" fill="#5470c6" rx="3"/><text x="156.25" y="200" text-anchor="middle" font-size="12" fill="#333">120</text><text x="156.25" y="460" text-anchor="middle" font-size="12" fill="#666">1月</text><rect x="277" y="50" width="103.5" height="390" fill="#91cc75" rx="3"/><text x="328.75" y="44" text-anchor="middle" font-size="12" fill="#333">200</text><text x="328.75" y="460" text-anchor="middle" font-size="12" fill="#666">2月</text><rect x="449.5" y="147.5" width="103.5" height="292.5" fill="#fac858" rx="3"/><text x="501.25" y="141.5" text-anchor="middle" font-size="12" fill="#333">150</text><text x="501.25" y="460" text-anchor="middle" font-size="12" fill="#666">3月</text><rect x="622" y="284" width="103.5" height="156" fill="#ee6666" rx="3"/><text x="673.75" y="278" text-anchor="middle" font-size="12" fill="#333">80</text><text x="673.75" y="460" text-anchor="middle" font-size="12" fill="#666">4月</text>
</svg>